<svg width="127" height="120" viewBox="0 0 127 120" fill="none" xmlns="http://www.w3.org/2000/svg">
<path d="M74.1648 46.3236C73.97 46.3242 73.777 46.2863 73.597 46.2121C73.4169 46.1378 73.2534 46.0287 73.1157 45.8909L66.8449 39.62L60.5742 45.8909C60.437 46.0287 60.274 46.1381 60.0945 46.2127C59.915 46.2873 59.7225 46.3257 59.5281 46.3257C59.3337 46.3257 59.1412 46.2873 58.9616 46.2127C58.7821 46.1381 58.6191 46.0287 58.482 45.8909L51.0969 38.5057C50.8197 38.227 50.6641 37.8498 50.6641 37.4566C50.6641 37.0635 50.8197 36.6863 51.0969 36.4076L57.3677 30.1367L51.0969 23.8658C50.9591 23.7287 50.8498 23.5657 50.7751 23.3862C50.7005 23.2066 50.6621 23.0141 50.6621 22.8197C50.6621 22.6253 50.7005 22.4328 50.7751 22.2533C50.8498 22.0737 50.9591 21.9107 51.0969 21.7736L58.482 14.3884C58.6191 14.2506 58.7821 14.1413 58.9616 14.0666C59.1412 13.992 59.3337 13.9536 59.5281 13.9536C59.7225 13.9536 59.915 13.992 60.0945 14.0666C60.274 14.1413 60.437 14.2506 60.5742 14.3884L66.8449 20.6593L73.1157 14.3884C73.3988 14.1195 73.7743 13.9696 74.1648 13.9696C74.5552 13.9696 74.9308 14.1195 75.2138 14.3884L82.5989 21.7736C82.7367 21.9107 82.846 22.0737 82.9207 22.2533C82.9953 22.4328 83.0337 22.6253 83.0337 22.8197C83.0337 23.0141 82.9953 23.2066 82.9207 23.3862C82.846 23.5657 82.7367 23.7287 82.5989 23.8658L76.3281 30.1367L82.5989 36.4076C82.7369 36.5452 82.8464 36.7087 82.9211 36.8887C82.9958 37.0688 83.0342 37.2617 83.0342 37.4566C83.0342 37.6515 82.9958 37.8445 82.9211 38.0246C82.8464 38.2046 82.7369 38.3681 82.5989 38.5057L75.2079 45.8909C74.9313 46.1677 74.5561 46.3233 74.1648 46.3236ZM54.2382 37.4329L59.531 42.7258L65.8018 36.455C65.9389 36.3172 66.1019 36.2078 66.2815 36.1332C66.461 36.0586 66.6535 36.0201 66.8479 36.0201C67.0423 36.0201 67.2348 36.0586 67.4143 36.1332C67.5939 36.2078 67.7569 36.3172 67.894 36.455L74.1648 42.7495L79.4576 37.4566L73.1868 31.1858C73.049 31.0487 72.9397 30.8856 72.865 30.7061C72.7904 30.5266 72.752 30.3341 72.752 30.1397C72.752 29.9452 72.7904 29.7527 72.865 29.5732C72.9397 29.3937 73.049 29.2307 73.1868 29.0935L79.4576 22.8227L74.1648 17.5298L67.894 23.8006C67.6119 24.0692 67.2374 24.2189 66.8479 24.2189C66.4584 24.2189 66.0839 24.0692 65.8018 23.8006L59.531 17.5298L54.2382 22.8227L60.509 29.0935C60.7859 29.3713 60.9413 29.7475 60.9413 30.1397C60.9413 30.5318 60.7859 30.908 60.509 31.1858L54.2382 37.4329Z" fill="#CC3652"/>
<path d="M66.8209 59.7092C58.8277 59.7022 51.1646 56.5501 45.5175 50.9463C39.8705 45.3425 36.7019 37.7461 36.709 29.8282C36.7161 21.9103 39.8982 14.3194 45.5552 8.72556C51.2123 3.1317 58.881 -0.006971 66.8743 3.18826e-05C73.1368 -0.00906391 79.2443 1.92826 84.3366 5.53909L84.4077 5.5919C84.7266 5.8191 84.9414 6.1625 85.0047 6.54653C85.068 6.93057 84.9747 7.3238 84.7454 7.63971C84.516 7.95561 84.1693 8.16833 83.7816 8.23105C83.3939 8.29377 82.997 8.20137 82.6781 7.97416L82.6248 7.93309C79.7196 5.86107 76.4298 4.37801 72.9444 3.5691C69.459 2.76018 65.8465 2.64136 62.3146 3.21944C58.7827 3.79753 55.4008 5.06114 52.3633 6.93769C49.3258 8.81423 46.6925 11.2667 44.6147 14.1544C42.5368 17.042 41.0554 20.3078 40.2554 23.7642C39.4554 27.2206 39.3527 30.7995 39.9531 34.2954C40.5535 37.7912 41.8453 41.1351 43.7542 44.135C45.663 47.1349 48.1514 49.7317 51.0764 51.7761C55.1395 54.6424 59.9206 56.346 64.8959 56.7002C69.8713 57.0544 74.8491 56.0457 79.2843 53.7845C83.7196 51.5232 87.4411 48.0967 90.0415 43.88C92.6419 39.6634 94.0209 34.8193 94.0274 29.8781C94.0211 26.1224 93.2305 22.4086 91.7054 18.9701C91.5623 18.6162 91.5639 18.221 91.7099 17.8683C91.8559 17.5155 92.1348 17.2329 92.4875 17.0803C92.8402 16.9278 93.239 16.9172 93.5994 17.0509C93.9599 17.1846 94.2536 17.4521 94.4184 17.7966C96.4458 22.3439 97.2952 27.3207 96.8893 32.2755C96.4834 37.2303 94.8352 42.0063 92.0942 46.1704C89.3531 50.3344 85.6059 53.7547 81.1926 56.121C76.7792 58.4872 71.8393 59.7246 66.8209 59.7209V59.7092Z" fill="#BFBFBF"/>
<path d="M89.6277 13.9293C89.3868 13.9288 89.1485 13.8859 88.9275 13.8032C88.7065 13.7206 88.5075 13.5999 88.3427 13.4486L87.4069 12.5712C87.092 12.2787 86.925 11.8906 86.9427 11.4922C86.9604 11.0939 87.1612 10.7178 87.5011 10.4469C87.841 10.1759 88.2921 10.0323 88.7551 10.0475C89.2181 10.0627 89.6551 10.2355 89.97 10.528L90.9407 11.4294C91.1716 11.6436 91.3249 11.9111 91.3818 12.1992C91.4387 12.4872 91.3968 12.7833 91.2612 13.0511C91.1256 13.319 90.9021 13.547 90.6182 13.7072C90.3343 13.8675 90.0022 13.953 89.6627 13.9534L89.6277 13.9293Z" fill="#CC3652"/>
<path d="M92.7131 94.8424L49.3771 94.6532C47.6793 94.6473 46.028 94.0961 44.6647 93.0801L42.2143 91.2469C40.7031 90.1186 39.6454 88.4833 39.2336 86.6383C38.8217 84.7934 39.0831 82.8613 39.97 81.1934C40.2855 80.6003 40.4779 79.9492 40.5356 79.2793C40.5933 78.6095 40.5151 77.9349 40.3058 77.2962L26.8815 36.5029C26.5553 35.508 25.9236 34.6425 25.0769 34.0305C24.2303 33.4185 23.2123 33.0915 22.1691 33.0966H11.9492C11.5586 33.0966 11.184 32.9408 10.9079 32.6635C10.6317 32.3863 10.4766 32.0102 10.4766 31.6181C10.4766 31.226 10.6317 30.8499 10.9079 30.5727C11.184 30.2954 11.5586 30.1397 11.9492 30.1397H22.1691C23.8299 30.1368 25.4492 30.6608 26.7958 31.6367C28.1425 32.6127 29.1475 33.9909 29.6676 35.5744L43.1155 76.3796C43.4495 77.3977 43.5752 78.4729 43.4851 79.541C43.395 80.609 43.091 81.6478 42.5913 82.595C42.0283 83.6418 41.8601 84.8572 42.1176 86.0185C42.3751 87.1797 43.041 88.2087 43.9932 88.9168L46.4436 90.7501C47.2942 91.3884 48.3269 91.7347 49.3889 91.7377L92.7249 91.9269C93.1154 91.9269 93.49 92.0827 93.7662 92.36C94.0423 92.6372 94.1975 93.0133 94.1975 93.4054C94.1975 93.7975 94.0423 94.1735 93.7662 94.4508C93.49 94.7281 93.1154 94.8838 92.7249 94.8838L92.7131 94.8424Z" fill="#BFBFBF"/>
<path d="M42.1693 80.9285C41.9756 80.9384 41.7818 80.9106 41.5989 80.8467C41.416 80.7827 41.2477 80.6839 41.1036 80.5557C40.9595 80.4276 40.8423 80.2728 40.7589 80.1C40.6754 79.9273 40.6273 79.74 40.6172 79.5489C40.6072 79.3578 40.6353 79.1666 40.7002 78.9862C40.765 78.8058 40.8652 78.6398 40.9951 78.4977C41.125 78.3555 41.282 78.24 41.4571 78.1577C41.6323 78.0753 41.8222 78.0279 42.0159 78.0179L91.5892 72.9419C92.6154 72.8352 93.5823 72.4157 94.3555 71.7417C95.1287 71.0678 95.6697 70.1729 95.9033 69.1815L100.737 48.6913C100.768 48.5656 100.769 48.4346 100.741 48.3083C100.712 48.1821 100.654 48.0641 100.571 47.9636C100.492 47.861 100.391 47.7773 100.274 47.7189C100.158 47.6604 100.029 47.6287 99.8987 47.626L96.3577 47.562C95.9664 47.5581 95.5927 47.4011 95.3188 47.1255C95.0449 46.8498 94.8932 46.4781 94.8971 46.0922C94.901 45.7062 95.0602 45.3376 95.3396 45.0674C95.6191 44.7972 95.9959 44.6476 96.3872 44.6514L99.9282 44.7155C100.5 44.7271 101.063 44.865 101.574 45.1189C102.085 45.3728 102.533 45.7364 102.883 46.1829C103.233 46.6295 103.478 47.1477 103.599 47.6996C103.719 48.2514 103.713 48.823 103.581 49.3723L98.7951 69.8218C98.4229 71.4041 97.5592 72.8323 96.3246 73.9072C95.0899 74.982 93.5459 75.6499 91.9079 75.8176L42.3346 80.8935L42.1693 80.9285Z" fill="#BFBFBF"/>
<path d="M36.367 46.3254H35.2974C34.9242 46.318 34.5692 46.1639 34.3105 45.897C34.0519 45.6301 33.9108 45.2723 33.9183 44.9023C33.9257 44.5322 34.0811 44.1803 34.3503 43.9239C34.6195 43.6674 34.9805 43.5275 35.3537 43.5349H36.4176C36.7909 43.5349 37.1488 43.6819 37.4128 43.9436C37.6767 44.2053 37.8249 44.5601 37.8249 44.9302C37.8249 45.3002 37.6767 45.6551 37.4128 45.9167C37.1488 46.1784 36.7909 46.3254 36.4176 46.3254H36.367Z" fill="#BFBFBF"/>
<path d="M41.7389 120C39.9724 120.001 38.2452 119.479 36.7759 118.498C35.3065 117.517 34.161 116.123 33.4842 114.491C32.8074 112.86 32.6297 111.064 32.9736 109.331C33.3175 107.599 34.1676 106.007 35.4163 104.757C36.6649 103.508 38.2561 102.657 39.9886 102.312C41.7211 101.967 43.5169 102.143 45.1491 102.819C46.7812 103.495 48.1762 104.639 49.1578 106.108C50.1393 107.577 50.6632 109.303 50.6632 111.07C50.6616 113.437 49.7211 115.706 48.048 117.381C46.3748 119.055 44.1058 119.997 41.7389 120ZM41.7389 105.095C40.5554 105.094 39.3983 105.444 38.4138 106.1C37.4293 106.757 36.6618 107.691 36.2084 108.784C35.7549 109.877 35.636 111.08 35.8666 112.241C36.0972 113.402 36.6669 114.468 37.5038 115.305C38.3406 116.142 39.4068 116.712 40.5676 116.942C41.7283 117.173 42.9314 117.054 44.0245 116.6C45.1177 116.147 46.0517 115.379 46.7085 114.395C47.3652 113.41 47.7151 112.253 47.714 111.07C47.7078 109.488 47.0759 107.973 45.9563 106.856C44.8368 105.739 43.3206 105.11 41.7389 105.107V105.095Z" fill="#BFBFBF"/>
<path d="M83.0416 120C81.2751 120.001 79.548 119.479 78.0786 118.498C76.6093 117.517 75.4638 116.123 74.7869 114.491C74.1101 112.86 73.9324 111.064 74.2763 109.331C74.6203 107.599 75.4703 106.007 76.719 104.757C77.9677 103.508 79.5589 102.657 81.2913 102.312C83.0238 101.967 84.8197 102.143 86.4518 102.819C88.0839 103.495 89.479 104.639 90.4605 106.108C91.442 107.577 91.9659 109.303 91.9659 111.07C91.9644 113.437 91.0238 115.706 89.3507 117.381C87.6776 119.055 85.4086 119.997 83.0416 120ZM83.0416 105.095C81.8582 105.094 80.701 105.444 79.7165 106.1C78.732 106.757 77.9645 107.691 77.5111 108.784C77.0577 109.877 76.9387 111.08 77.1693 112.241C77.3999 113.402 77.9697 114.468 78.8065 115.305C79.6433 116.142 80.7096 116.712 81.8703 116.942C83.0311 117.173 84.2341 117.054 85.3273 116.6C86.4204 116.147 87.3544 115.379 88.0112 114.395C88.6679 113.41 89.0179 112.253 89.0167 111.07C89.0105 109.488 88.3786 107.973 87.2591 106.856C86.1395 105.739 84.6233 105.11 83.0416 105.107V105.095Z" fill="#BFBFBF"/>
<path d="M113.948 115.535H95.6564C95.4175 115.535 95.1885 115.447 95.0196 115.29C94.8507 115.133 94.7559 114.92 94.7559 114.698C94.7559 114.476 94.8507 114.263 95.0196 114.106C95.1885 113.949 95.4175 113.86 95.6564 113.86H113.948C114.187 113.86 114.416 113.949 114.585 114.106C114.754 114.263 114.849 114.476 114.849 114.698C114.849 114.92 114.754 115.133 114.585 115.29C114.416 115.447 114.187 115.535 113.948 115.535Z" fill="#BFBFBF"/>
<path d="M125.152 115.535H116.824C116.597 115.535 116.378 115.447 116.217 115.29C116.055 115.133 115.965 114.92 115.965 114.698C115.965 114.476 116.055 114.263 116.217 114.106C116.378 113.949 116.597 113.86 116.824 113.86H125.152C125.38 113.86 125.598 113.949 125.76 114.106C125.921 114.263 126.011 114.476 126.011 114.698C126.011 114.92 125.921 115.133 125.76 115.29C125.598 115.447 125.38 115.535 125.152 115.535Z" fill="#BFBFBF"/>
<path d="M101.717 119.442H93.3768C93.1504 119.442 92.9334 119.354 92.7734 119.197C92.6133 119.04 92.5234 118.827 92.5234 118.605C92.5234 118.383 92.6133 118.17 92.7734 118.013C92.9334 117.856 93.1504 117.768 93.3768 117.768H101.717C101.943 117.768 102.16 117.856 102.32 118.013C102.48 118.17 102.57 118.383 102.57 118.605C102.57 118.827 102.48 119.04 102.32 119.197C102.16 119.354 101.943 119.442 101.717 119.442Z" fill="#BFBFBF"/>
<path d="M30.794 118.884H11.3685C11.1319 118.884 10.9051 118.796 10.7378 118.639C10.5705 118.482 10.4766 118.269 10.4766 118.047C10.4766 117.825 10.5705 117.612 10.7378 117.455C10.9051 117.298 11.1319 117.209 11.3685 117.209H30.794C31.0305 117.209 31.2574 117.298 31.4246 117.455C31.5919 117.612 31.6859 117.825 31.6859 118.047C31.6859 118.269 31.5919 118.482 31.4246 118.639C31.2574 118.796 31.0305 118.884 30.794 118.884Z" fill="#BFBFBF"/>
<path d="M27.4388 116.093H17.5165C17.278 116.093 17.0492 115.975 16.8806 115.766C16.7119 115.557 16.6172 115.273 16.6172 114.977C16.6172 114.681 16.7119 114.397 16.8806 114.187C17.0492 113.978 17.278 113.86 17.5165 113.86H27.4388C27.6773 113.86 27.9061 113.978 28.0747 114.187C28.2434 114.397 28.3381 114.681 28.3381 114.977C28.3381 115.273 28.2434 115.557 28.0747 115.766C27.9061 115.975 27.6773 116.093 27.4388 116.093Z" fill="#BFBFBF"/>
<path d="M112.338 98.7908C111.841 98.7908 111.355 98.6435 110.942 98.3675C110.529 98.0916 110.207 97.6993 110.017 97.2404C109.827 96.7814 109.778 96.2764 109.874 95.7892C109.971 95.302 110.211 94.8545 110.562 94.5032C110.913 94.152 111.361 93.9128 111.848 93.8158C112.335 93.7189 112.84 93.7687 113.299 93.9588C113.758 94.1489 114.15 94.4708 114.426 94.8838C114.702 95.2969 114.849 95.7825 114.849 96.2792C114.849 96.9453 114.585 97.5842 114.114 98.0552C113.643 98.5262 113.004 98.7908 112.338 98.7908ZM112.338 95.5245C112.187 95.5234 112.039 95.5671 111.913 95.6503C111.787 95.7334 111.689 95.8521 111.63 95.9913C111.572 96.1305 111.557 96.2839 111.586 96.432C111.615 96.5801 111.687 96.7162 111.794 96.8229C111.901 96.9296 112.037 97.0022 112.185 97.0313C112.333 97.0605 112.486 97.0449 112.626 96.9866C112.765 96.9283 112.884 96.8299 112.967 96.704C113.05 96.578 113.094 96.4301 113.092 96.2792C113.092 96.0791 113.013 95.8871 112.871 95.7456C112.73 95.6041 112.538 95.5245 112.338 95.5245Z" fill="#CC3652"/>
<path d="M19.6812 15.0695C19.4645 15.0696 19.2563 14.9705 19.1009 14.7931C18.9456 14.6158 18.8554 14.3744 18.8496 14.1202V9.3541C18.8496 9.09365 18.9378 8.84387 19.0948 8.6597C19.2518 8.47553 19.4648 8.37207 19.6868 8.37207C19.9089 8.37207 20.1218 8.47553 20.2788 8.6597C20.4358 8.84387 20.524 9.09365 20.524 9.3541V14.1202C20.5219 14.2475 20.4983 14.373 20.4548 14.4896C20.4112 14.6062 20.3486 14.7115 20.2703 14.7997C20.192 14.8878 20.0997 14.9571 19.9987 15.0034C19.8976 15.0497 19.7897 15.0721 19.6812 15.0695Z" fill="#CC3652"/>
<path d="M21.8103 12.8371H17.0046C16.7537 12.8371 16.5131 12.7194 16.3357 12.5101C16.1583 12.3008 16.0586 12.0168 16.0586 11.7208C16.0586 11.4247 16.1583 11.1408 16.3357 10.9314C16.5131 10.7221 16.7537 10.6045 17.0046 10.6045H21.8103C22.0612 10.6045 22.3018 10.7221 22.4792 10.9314C22.6566 11.1408 22.7563 11.4247 22.7563 11.7208C22.7563 12.0168 22.6566 12.3008 22.4792 12.5101C22.3018 12.7194 22.0612 12.8371 21.8103 12.8371Z" fill="#CC3652"/>
<path d="M10.7496 46.8836C10.6404 46.8836 10.5322 46.8625 10.4313 46.8217C10.3304 46.7808 10.2388 46.721 10.1615 46.6455C10.0843 46.57 10.0231 46.4804 9.98127 46.3817C9.93948 46.2831 9.91797 46.1774 9.91797 46.0706V42.1206C9.91797 42.0132 9.93962 41.9067 9.9817 41.8074C10.0238 41.7082 10.0854 41.6179 10.1632 41.5419C10.2409 41.4659 10.3332 41.4057 10.4348 41.3645C10.5364 41.3234 10.6452 41.3022 10.7552 41.3022C10.8651 41.3022 10.974 41.3234 11.0756 41.3645C11.1771 41.4057 11.2694 41.4659 11.3472 41.5419C11.4249 41.6179 11.4866 41.7082 11.5287 41.8074C11.5707 41.9067 11.5924 42.0132 11.5924 42.1206V46.0706C11.5924 46.1783 11.5705 46.2849 11.528 46.3843C11.4855 46.4836 11.4233 46.5737 11.3449 46.6494C11.2665 46.725 11.1735 46.7846 11.0713 46.8248C10.9691 46.8651 10.8597 46.885 10.7496 46.8836Z" fill="#CC3652"/>
<path d="M12.9579 45.2091H8.55271C8.32273 45.2091 8.10216 45.1209 7.93953 44.9639C7.77691 44.8069 7.68555 44.5939 7.68555 44.3719C7.68555 44.1498 7.77691 43.9369 7.93953 43.7799C8.10216 43.6229 8.32273 43.5347 8.55271 43.5347H12.9579C13.1879 43.5347 13.4085 43.6229 13.5711 43.7799C13.7337 43.9369 13.8251 44.1498 13.8251 44.3719C13.8251 44.5939 13.7337 44.8069 13.5711 44.9639C13.4085 45.1209 13.1879 45.2091 12.9579 45.2091Z" fill="#CC3652"/>
<path d="M3.50578 34.6048C3.00853 34.606 2.52212 34.4595 2.10819 34.184C1.69425 33.9084 1.37142 33.5162 1.18059 33.057C0.989767 32.5979 0.939532 32.0924 1.03626 31.6046C1.13298 31.1169 1.37231 30.6688 1.72392 30.3172C2.07553 29.9656 2.5236 29.7262 3.01136 29.6295C3.49911 29.5328 4.0046 29.583 4.46378 29.7739C4.92296 29.9647 5.31516 30.2875 5.5907 30.7015C5.86623 31.1154 6.01269 31.6018 6.01153 32.099C6.00998 32.7631 5.74548 33.3996 5.2759 33.8692C4.80632 34.3387 4.16987 34.6032 3.50578 34.6048ZM3.50578 31.3403C3.35547 31.3391 3.20819 31.3826 3.08264 31.4653C2.95709 31.5479 2.85891 31.666 2.80058 31.8046C2.74225 31.9431 2.72638 32.0959 2.75499 32.2434C2.7836 32.391 2.8554 32.5268 2.96128 32.6335C3.06716 32.7402 3.20235 32.813 3.3497 32.8428C3.49704 32.8725 3.64991 32.8579 3.7889 32.8006C3.92789 32.7434 4.04675 32.6461 4.13039 32.5212C4.21403 32.3963 4.25868 32.2494 4.25869 32.099C4.25869 31.8988 4.17956 31.7067 4.03853 31.5646C3.8975 31.4224 3.706 31.3418 3.50578 31.3403Z" fill="#CC3652"/>
<path d="M104.517 87.0698C104.408 87.0698 104.3 87.0467 104.199 87.0019C104.098 86.957 104.006 86.8913 103.929 86.8084C103.852 86.7256 103.791 86.6272 103.749 86.5189C103.707 86.4106 103.686 86.2946 103.686 86.1774V79.0381C103.686 78.7998 103.774 78.5713 103.931 78.4028C104.088 78.2343 104.301 78.1396 104.523 78.1396C104.745 78.1396 104.958 78.2343 105.115 78.4028C105.272 78.5713 105.36 78.7998 105.36 79.0381V86.1774C105.36 86.2956 105.338 86.4126 105.296 86.5217C105.253 86.6307 105.191 86.7297 105.112 86.8127C105.034 86.8957 104.941 86.9612 104.839 87.0053C104.737 87.0495 104.627 87.0714 104.517 87.0698Z" fill="#CC3652"/>
<path d="M107.868 83.1627H101.18C100.956 83.1627 100.742 83.0745 100.584 82.9175C100.427 82.7605 100.338 82.5475 100.338 82.3255C100.338 82.1034 100.427 81.8905 100.584 81.7335C100.742 81.5765 100.956 81.4883 101.18 81.4883H107.868C108.092 81.4883 108.306 81.5765 108.463 81.7335C108.621 81.8905 108.71 82.1034 108.71 82.3255C108.71 82.5475 108.621 82.7605 108.463 82.9175C108.306 83.0745 108.092 83.1627 107.868 83.1627Z" fill="#CC3652"/>
</svg>
