<?xml version="1.0" encoding="UTF-8"?>
<svg id="Camada_2" xmlns="http://www.w3.org/2000/svg" viewBox="0 0 463.31 130.87">
  <defs>
    <style>
      .cls-1 {
        fill: #ffce00;
      }

      .cls-2 {
        fill: #0e167a;
      }
    </style>
  </defs>
  <g id="Camada_1-2" data-name="Camada_1">
    <g>
      <path class="cls-2" d="M38.34,2.04c-.26-.28-.56-.54-.56-.54-.29-.25-.59-.46-.89-.63-1.01-.59-2.17-.87-3.34-.87h-5.66v13.61h5.78c1.11,0,2.21-.26,3.17-.82.14-.08.58-.34,1-.71,1.91-1.7,2.05-4.49,2.06-5.23.04-2.63-1.2-4.42-1.56-4.81ZM35.84,10.14c-.21.23-.42.39-.49.44-.47.34-1.02.5-1.56.5h-2.85V2.69h2.79c.58,0,1.15.17,1.65.54.14.11.29.23.44.39,0,0,.15.16.28.33.18.24.79,1.35.77,2.97,0,.45-.08,2.17-1.01,3.22Z"/>
      <polygon class="cls-2" points="43.88 0 43.88 13.73 54.31 13.73 54.31 11.09 47.03 11.09 47.03 7.86 53.51 7.91 53.53 5.38 47.02 5.38 47.02 2.69 54.12 2.69 54.1 0 43.88 0"/>
      <polygon class="cls-2" points="58.17 13.73 61.12 13.73 61.12 4.97 66.64 13.73 69.8 13.73 69.8 0 66.78 0 66.81 8.8 61.33 0 58.17 0 58.17 13.73"/>
      <polygon class="cls-2" points="77.21 13.73 80.33 13.73 80.33 2.68 84.36 2.68 84.36 0 73.18 0 73.18 2.74 77.2 2.72 77.21 13.73"/>
      <path class="cls-2" d="M92.98,0h-3.14l-5.23,13.73h3.21l1.02-2.96h4.94l1.02,2.96h3.23l-5.05-13.73ZM89.55,8.37l1.84-4.92,1.71,4.92h-3.55Z"/>
      <polygon class="cls-2" points="101.12 0 104.26 0 104.26 11.03 110.79 11.03 110.79 13.73 101.12 13.73 101.12 0"/>
      <path class="cls-2" d="M71.11,44.78c0-3.22-.03-11.02-5.73-17.7-7.21-8.44-17.83-8.51-19.85-8.52-2.59-.01-10.37.06-17.05,5.77-8.42,7.21-8.52,17.78-8.54,20.45-.03,2.84-.1,10.93,5.86,17.81,7.26,8.39,17.78,8.41,19.72,8.41,3.28,0,13.27-.57,20.03-8.63,5.58-6.65,5.56-14.35,5.56-17.59ZM56.99,50.88c-.55,2.05-1.45,5.42-4.6,7.71-2.78,2.01-5.79,2.09-6.85,2.11-.82.01-2.35.02-4.14-.68-2.38-.92-3.76-2.51-4.41-3.29-3.62-4.27-3.35-10.27-3.26-12.31.14-3.13.47-10.48,5.78-13.85,2.52-1.59,5.19-1.69,6.03-1.69.63,0,4.17.05,7.21,2.47,4.29,3.42,4.57,9.18,4.77,13.28.08,1.59.17,3.66-.53,6.24Z"/>
      <path class="cls-2" d="M129.21,27.07V1.09h-13.68v24.82c-2.59-3.27-4.87-4.63-5.5-4.99-4.15-2.38-8.22-2.38-9.92-2.36-3.43.04-6,.92-6.97,1.28-.2.08-3.65,1.4-6.64,4.12-7.39,6.7-7.79,17.97-7.78,21.03,0,2.64.1,9,4,15.42,1.1,1.82,2.98,4.84,6.71,7.28,4.57,2.99,9.06,3.24,10.68,3.31,2.08.09,6.93.29,11.45-2.75.54-.36,2.38-1.65,4.62-4.85v6.22h13.06V27.07h-.02ZM109.52,59.55c-2.33,1.18-5.05,1.16-5.18,1.16,0,0-3.04-.04-5.73-1.64-6.08-3.61-6.19-12.94-6.19-14.28,0-.79.14-11.23,6.6-14.61,2.55-1.33,5.46-1.32,5.46-1.32,0,0,2.79.01,5.14,1.21,6.24,3.19,6.36,13.59,6.35,14.72,0,1.22-.15,11.56-6.46,14.76Z"/>
      <path class="cls-2" d="M189.96,44.79c0-3.22-.03-11.02-5.73-17.7-7.21-8.44-17.83-8.51-19.85-8.52-2.59-.01-10.37.06-17.05,5.77-8.42,7.21-8.52,17.78-8.54,20.45-.03,2.84-.1,10.93,5.86,17.81,7.26,8.39,17.78,8.41,19.72,8.41,3.28,0,13.27-.57,20.03-8.63,5.58-6.65,5.56-14.35,5.56-17.59ZM175.84,50.89c-.55,2.05-1.45,5.42-4.6,7.71-2.78,2.01-5.79,2.09-6.85,2.11-.82.01-2.35.02-4.14-.68-2.38-.92-3.76-2.51-4.41-3.29-3.62-4.27-3.35-10.27-3.26-12.31.14-3.13.47-10.48,5.78-13.85,2.52-1.59,5.19-1.69,6.03-1.69.63,0,4.17.05,7.21,2.47,4.29,3.42,4.57,9.18,4.77,13.28.08,1.59.17,3.66-.53,6.24Z"/>
      <path class="cls-2" d="M232.39,42.24c.09-.99.14-2.3-.02-3.84-.16-1.5-.32-3.06-1.24-4.81-.47-.9-1.1-2.1-2.43-3-1.65-1.12-3.38-1.09-5.38-1.05-1.48.03-3.24.06-5.14,1.14-.59.34-1.55.98-2.42,2.05-1.14,1.41-1.49,2.78-1.91,4.51-.32,1.29-.65,3.12-.67,5.37,0,.18,0,.36,0,.54v26.48h-13.63V30.26h-.07v-10.28h13.04v7.02c.96-1.47,3.11-4.35,6.95-6.35,4.29-2.24,8.22-2.1,10.35-2,2.52.12,6.6.32,10.28,3.21,2.5,1.97,3.74,4.34,4.05,4.98.85,1.72,1.14,3.2,1.43,4.68.48,2.45.54,4.52.49,5.94.06,10.73.11,21.46.16,32.19h-13.85v-27.41Z"/>
      <path class="cls-2" d="M274.63,54.78c0,.53.02,2.64,1.5,3.75.52.39,1.02.51,1.81.69.88.2,1.67.24,4.63.04.83-.06,1.52-.11,1.99-.15v10.5c-3.36.36-6.22.46-8.37.46-5.44.01-7.29-.55-8.46-1-1.2-.47-3.1-1.23-4.66-3.13-.27-.33-1.3-1.62-1.87-3.6-.35-1.22-.31-1.95-.34-5.3,0-1.24-.02-2.65-.05-4.21v-23.68h-8.17v-9.21h8.17V5.1h13.83v14.86h9.93v9.21h-9.93v25.62Z"/>
      <path class="cls-2" d="M341.51,44.78c0-3.22-.03-11.02-5.73-17.7-7.21-8.44-17.83-8.51-19.85-8.52-2.59-.01-10.37.06-17.05,5.77-8.42,7.21-8.52,17.78-8.54,20.45-.03,2.84-.1,10.93,5.86,17.81,7.26,8.39,17.78,8.41,19.72,8.41,3.28,0,13.27-.57,20.03-8.63,5.58-6.65,5.56-14.35,5.56-17.59ZM327.39,50.88c-.55,2.05-1.45,5.42-4.6,7.71-2.78,2.01-5.79,2.09-6.85,2.11-.82.01-2.35.02-4.14-.68-2.38-.92-3.76-2.51-4.41-3.29-3.62-4.27-3.35-10.27-3.26-12.31.14-3.13.47-10.48,5.78-13.85,2.52-1.59,5.19-1.69,6.03-1.69.63,0,4.17.05,7.21,2.47,4.29,3.42,4.57,9.18,4.77,13.28.08,1.59.17,3.66-.53,6.24Z"/>
      <path class="cls-2" d="M221.41,95.23v34.32s-13.83-.01-13.83-.01c-.01-10.05-.02-20.11-.03-30.16.06-.74.07-1.82-.17-3.09-.27-1.46-.66-3.57-2.38-5.16-1.96-1.82-4.47-1.86-5.54-1.88-.67-.01-2.65.02-4.43.95-3.16,1.65-4.96,5.74-4.71,10.32v29.02h-13.82c0-10.42,0-20.85-.01-31.27.01-.26.23-5.79-3.4-7.96-1.58-.95-3.45-.98-4.19-1-2.01-.04-3.67.52-4.59.98-3.18,1.56-5.2,5.6-5.22,10.23v29h-13.67v-49.82h12.94v6.87c.93-1.46,3.52-5.07,8.37-7.01,3.34-1.34,6.18-1.26,7.54-1.21,1.88.07,8.06.3,11.92,4.9,1.04,1.24,1.64,2.48,1.98,3.33.95-1.49,3.47-5,8.17-6.96,3.44-1.43,6.4-1.35,7.9-1.29,1.46.06,10.13.39,14.24,6.57,2.01,3.02,2.61,6.95,2.7,7.59.16,1.13.2,2.08.2,2.75Z"/>
      <path class="cls-2" d="M278.11,126.59c-.68-2.57-.84-4.88-.81-6.72,0-8.32,0-16.64-.01-24.96.07-.86.11-2.05.01-3.45-.04-.57-.15-2.19-.51-3.46-.76-2.7-2.76-4.39-3.81-5.27-5.4-4.54-15.92-4.36-16.45-4.35-5.58.15-16.85.45-21.97,8.54-1.94,3.06-2.36,6.24-2.44,8.27h13.83c.03-.89.25-3.62,2.32-5.53.85-.78,1.73-1.17,2.21-1.38,1.81-.78,3.36-.73,5.07-.65,2.43.1,4.55.2,6.14,1.74.66.63,1.02,1.31,1.17,1.6.86,1.64.8,3.22.73,3.94-.02.34-.08.83-.31,1.34-.87,1.91-3.29,2.57-5.78,3.07-3.58.73-5.29.73-8.47,1.12-6.59.8-9.59,2.05-11.35,2.98-1.1.58-2.13,1.26-3.14,2.23-.29.28-1.72,1.68-2.78,3.88-2.76,5.72-.49,11.6-.33,11.99,1.13,2.78,2.82,4.48,3.29,4.94,3.89,3.77,8.85,4.08,12.13,4.29,0,0,5.02.32,10.73-1.7,2.52-.89,3.9-1.87,4.62-2.43.88-.7,1.52-1.38,1.94-1.87.07.83.2,1.77.43,2.79.16.72.36,1.39.56,1.99,4.65,0,9.31,0,13.96.01-.36-.88-.7-1.87-.99-2.95ZM263.56,112.26c-.03.47-.4,5.47-4.68,8.05-2.75,1.65-5.53,1.35-6.42,1.22-3.43.32-6.46-1.08-7.6-3.49-.57-1.2-.56-2.41-.44-3.27,0-.69.1-1.9.83-3.1.99-1.61,2.55-2.24,3.92-2.8,1.28-.52,2.4-.7,4.62-1.05,1.39-.22,1.24-.13,3.68-.48,2.53-.36,3.71-.6,4.96-1.36.56-.34.97-.68,1.22-.9-.03,2.4-.06,4.79-.08,7.18Z"/>
      <path class="cls-2" d="M330.84,94.3h-13.1c-.1-2.1-.89-3.34-1.33-3.9-1.96-2.54-5.39-2.66-8.06-2.76-2-.07-3.17.26-3.94.56-1.01.4-2.25.89-2.9,2.17-.89,1.74,0,3.64.15,3.94.27.32.7.79,1.32,1.26.94.72,2.03,1.23,4.96,2,1.27.33,1.9.5,2.83.67,6.35,1.18,15.55,2.89,19.29,8.04,3.07,4.21,2.58,10.76.35,15.17-6.1,12.07-25.88,9.18-26.81,9.03-3.53-.56-10.12-1.62-14.29-7.32-2.75-3.76-3.19-7.84-3.26-9.94,4.36,0,8.72-.01,13.08-.02-.02.87.08,2.04.62,3.25,1.77,3.98,6.97,5.53,10.89,5.15.41-.04,6.16-.67,7.49-4.29.49-1.34.19-2.59.14-2.78-.61-2.41-2.98-3.43-3.32-3.57-1.32-.42-3.38-1.04-5.92-1.71-6.02-1.58-7.86-1.63-11.92-3.1-4.22-1.53-5.95-2.76-7.24-4.32-1.42-1.71-2.07-3.5-2.39-4.71-.32-1.97-.79-6.57,1.78-10.85,3.69-6.15,10.97-7.17,15.02-7.74,1.13-.16,17.75-2.27,24.2,8.17,1.74,2.82,2.21,5.69,2.34,7.63Z"/>
      <path class="cls-2" d="M358.32,114.66c0,.53.02,2.64,1.5,3.75.52.39,1.02.51,1.81.69.88.2,1.67.24,4.63.04.83-.06,1.52-.11,1.99-.15v10.5c-3.36.36-6.22.46-8.37.46-5.44.01-7.29-.55-8.46-1-1.2-.47-3.1-1.23-4.66-3.13-.27-.33-1.3-1.62-1.87-3.6-.35-1.22-.31-1.95-.34-5.3,0-1.24-.02-2.65-.05-4.21v-23.68h-8.17v-9.21h8.17v-14.86h13.83v14.86h9.93v9.21h-9.93v25.62Z"/>
      <path class="cls-2" d="M411.52,81.98c-5.21-3.34-10.64-3.61-13.51-3.52-2.6.02-9.38.42-15.51,5.23-10.37,8.13-9.68,21.64-9.47,23.98,0,.02,0,.03,0,.05.15,2.42.95,9.52,6.25,15.31,7.06,7.7,16.74,7.71,19.32,7.71,3.03,0,10.26,0,16.31-5.41,4.59-4.11,6.09-9.2,6.6-11.38h-12.01c-.34.77-.89,1.79-1.8,2.77-3.96,4.22-12.67,5.47-17.58.76-3.57-3.43-3.45-8.41-3.4-9.5-.08,0-.16,0-.23,0,11.98,0,23.96.01,35.94.01,1.19-10.79-2.95-20.91-10.92-26.01ZM386.62,99.35c.01-.66.17-5.31,4.06-8.42,2.7-2.16,5.67-2.36,6.89-2.36.21,0,.42-.01.64,0,1.35.04,3.07.1,4.97,1.1,5.17,2.74,5.56,9.25,5.58,9.68-7.38,0-14.75,0-22.13,0Z"/>
      <path class="cls-2" d="M463.31,78.84v12.71c-1.09-.17-2.32-.29-3.66-.31-2.13-.04-4.01.18-5.55.46,0,0-2.06.61-3.94,2-4.39,3.24-5.18,8.7-5.29,11.48-.02.56-.02,1.01-.01,1.32,0,.12,0,.22.01.29v22.75h-13.68v-28.52h0v-21.28h13.08v9.2c.5-1.15,3.33-7.26,10.18-9.6,3.81-1.3,7.18-.85,8.86-.49Z"/>
      <path class="cls-2" d="M444.86,105.19v1.6c0-.06,0-.16-.01-.29,0-.3-.01-.76.01-1.32Z"/>
      <path class="cls-1" d="M141.55,87.29c0,1.64-.72,3.12-1.88,4.14-.27.24-.57.45-.88.64h0c-8.42,6.25-25.48,17.13-49.7,20.87-11.07,1.71-27.03,2.45-45.18-2.35C22.19,104.83,7.43,93.8,0,87.39c7.95,5.83,22.05,14.52,41.61,18.7,25.46,5.44,45.67.12,51.26-1.5,19-5.49,32.11-15.25,39.19-21.42.01-.01.02-.02.04-.03,1-.88,2.33-1.41,3.78-1.41,3.13,0,5.68,2.49,5.68,5.57Z"/>
      <path class="cls-2" d="M38.34,2.04c-.26-.28-.56-.54-.56-.54-.29-.25-.59-.46-.89-.63-1.01-.59-2.17-.87-3.34-.87h-5.66v13.61h5.78c1.11,0,2.21-.26,3.17-.82.14-.08.58-.34,1-.71,1.91-1.7,2.05-4.49,2.06-5.23.04-2.63-1.2-4.42-1.56-4.81ZM35.84,10.14c-.21.23-.42.39-.49.44-.47.34-1.02.5-1.56.5h-2.85V2.69h2.79c.58,0,1.15.17,1.65.54.14.11.29.23.44.39,0,0,.15.16.28.33.18.24.79,1.35.77,2.97,0,.45-.08,2.17-1.01,3.22Z"/>
      <polygon class="cls-2" points="43.88 0 43.88 13.73 54.31 13.73 54.31 11.09 47.03 11.09 47.03 7.86 53.51 7.91 53.53 5.38 47.02 5.38 47.02 2.69 54.12 2.69 54.1 0 43.88 0"/>
      <polygon class="cls-2" points="58.17 13.73 61.12 13.73 61.12 4.97 66.64 13.73 69.8 13.73 69.8 0 66.78 0 66.81 8.8 61.33 0 58.17 0 58.17 13.73"/>
      <polygon class="cls-2" points="77.21 13.73 80.33 13.73 80.33 2.68 84.36 2.68 84.36 0 73.18 0 73.18 2.74 77.2 2.72 77.21 13.73"/>
      <path class="cls-2" d="M92.98,0h-3.14l-5.23,13.73h3.21l1.02-2.96h4.94l1.02,2.96h3.23l-5.05-13.73ZM89.55,8.37l1.84-4.92,1.71,4.92h-3.55Z"/>
      <polygon class="cls-2" points="101.12 0 104.26 0 104.26 11.03 110.79 11.03 110.79 13.73 101.12 13.73 101.12 0"/>
      <path class="cls-2" d="M71.11,44.78c0-3.22-.03-11.02-5.73-17.7-7.21-8.44-17.83-8.51-19.85-8.52-2.59-.01-10.37.06-17.05,5.77-8.42,7.21-8.52,17.78-8.54,20.45-.03,2.84-.1,10.93,5.86,17.81,7.26,8.39,17.78,8.41,19.72,8.41,3.28,0,13.27-.57,20.03-8.63,5.58-6.65,5.56-14.35,5.56-17.59ZM56.99,50.88c-.55,2.05-1.45,5.42-4.6,7.71-2.78,2.01-5.79,2.09-6.85,2.11-.82.01-2.35.02-4.14-.68-2.38-.92-3.76-2.51-4.41-3.29-3.62-4.27-3.35-10.27-3.26-12.31.14-3.13.47-10.48,5.78-13.85,2.52-1.59,5.19-1.69,6.03-1.69.63,0,4.17.05,7.21,2.47,4.29,3.42,4.57,9.18,4.77,13.28.08,1.59.17,3.66-.53,6.24Z"/>
      <path class="cls-2" d="M129.21,27.07V1.09h-13.68v24.82c-2.59-3.27-4.87-4.63-5.5-4.99-4.15-2.38-8.22-2.38-9.92-2.36-3.43.04-6,.92-6.97,1.28-.2.08-3.65,1.4-6.64,4.12-7.39,6.7-7.79,17.97-7.78,21.03,0,2.64.1,9,4,15.42,1.1,1.82,2.98,4.84,6.71,7.28,4.57,2.99,9.06,3.24,10.68,3.31,2.08.09,6.93.29,11.45-2.75.54-.36,2.38-1.65,4.62-4.85v6.22h13.06V27.07h-.02ZM109.52,59.55c-2.33,1.18-5.05,1.16-5.18,1.16,0,0-3.04-.04-5.73-1.64-6.08-3.61-6.19-12.94-6.19-14.28,0-.79.14-11.23,6.6-14.61,2.55-1.33,5.46-1.32,5.46-1.32,0,0,2.79.01,5.14,1.21,6.24,3.19,6.36,13.59,6.35,14.72,0,1.22-.15,11.56-6.46,14.76Z"/>
      <path class="cls-2" d="M189.96,44.79c0-3.22-.03-11.02-5.73-17.7-7.21-8.44-17.83-8.51-19.85-8.52-2.59-.01-10.37.06-17.05,5.77-8.42,7.21-8.52,17.78-8.54,20.45-.03,2.84-.1,10.93,5.86,17.81,7.26,8.39,17.78,8.41,19.72,8.41,3.28,0,13.27-.57,20.03-8.63,5.58-6.65,5.56-14.35,5.56-17.59ZM175.84,50.89c-.55,2.05-1.45,5.42-4.6,7.71-2.78,2.01-5.79,2.09-6.85,2.11-.82.01-2.35.02-4.14-.68-2.38-.92-3.76-2.51-4.41-3.29-3.62-4.27-3.35-10.27-3.26-12.31.14-3.13.47-10.48,5.78-13.85,2.52-1.59,5.19-1.69,6.03-1.69.63,0,4.17.05,7.21,2.47,4.29,3.42,4.57,9.18,4.77,13.28.08,1.59.17,3.66-.53,6.24Z"/>
      <path class="cls-2" d="M232.39,42.24c.09-.99.14-2.3-.02-3.84-.16-1.5-.32-3.06-1.24-4.81-.47-.9-1.1-2.1-2.43-3-1.65-1.12-3.38-1.09-5.38-1.05-1.48.03-3.24.06-5.14,1.14-.59.34-1.55.98-2.42,2.05-1.14,1.41-1.49,2.78-1.91,4.51-.32,1.29-.65,3.12-.67,5.37,0,.18,0,.36,0,.54v26.48h-13.63V30.26h-.07v-10.28h13.04v7.02c.96-1.47,3.11-4.35,6.95-6.35,4.29-2.24,8.22-2.1,10.35-2,2.52.12,6.6.32,10.28,3.21,2.5,1.97,3.74,4.34,4.05,4.98.85,1.72,1.14,3.2,1.43,4.68.48,2.45.54,4.52.49,5.94.06,10.73.11,21.46.16,32.19h-13.85v-27.41Z"/>
      <path class="cls-2" d="M274.63,54.78c0,.53.02,2.64,1.5,3.75.52.39,1.02.51,1.81.69.88.2,1.67.24,4.63.04.83-.06,1.52-.11,1.99-.15v10.5c-3.36.36-6.22.46-8.37.46-5.44.01-7.29-.55-8.46-1-1.2-.47-3.1-1.23-4.66-3.13-.27-.33-1.3-1.62-1.87-3.6-.35-1.22-.31-1.95-.34-5.3,0-1.24-.02-2.65-.05-4.21v-23.68h-8.17v-9.21h8.17V5.1h13.83v14.86h9.93v9.21h-9.93v25.62Z"/>
      <path class="cls-2" d="M341.51,44.78c0-3.22-.03-11.02-5.73-17.7-7.21-8.44-17.83-8.51-19.85-8.52-2.59-.01-10.37.06-17.05,5.77-8.42,7.21-8.52,17.78-8.54,20.45-.03,2.84-.1,10.93,5.86,17.81,7.26,8.39,17.78,8.41,19.72,8.41,3.28,0,13.27-.57,20.03-8.63,5.58-6.65,5.56-14.35,5.56-17.59ZM327.39,50.88c-.55,2.05-1.45,5.42-4.6,7.71-2.78,2.01-5.79,2.09-6.85,2.11-.82.01-2.35.02-4.14-.68-2.38-.92-3.76-2.51-4.41-3.29-3.62-4.27-3.35-10.27-3.26-12.31.14-3.13.47-10.48,5.78-13.85,2.52-1.59,5.19-1.69,6.03-1.69.63,0,4.17.05,7.21,2.47,4.29,3.42,4.57,9.18,4.77,13.28.08,1.59.17,3.66-.53,6.24Z"/>
      <path class="cls-2" d="M221.41,95.23v34.32s-13.83-.01-13.83-.01c-.01-10.05-.02-20.11-.03-30.16.06-.74.07-1.82-.17-3.09-.27-1.46-.66-3.57-2.38-5.16-1.96-1.82-4.47-1.86-5.54-1.88-.67-.01-2.65.02-4.43.95-3.16,1.65-4.96,5.74-4.71,10.32v29.02h-13.82c0-10.42,0-20.85-.01-31.27.01-.26.23-5.79-3.4-7.96-1.58-.95-3.45-.98-4.19-1-2.01-.04-3.67.52-4.59.98-3.18,1.56-5.2,5.6-5.22,10.23v29h-13.67v-49.82h12.94v6.87c.93-1.46,3.52-5.07,8.37-7.01,3.34-1.34,6.18-1.26,7.54-1.21,1.88.07,8.06.3,11.92,4.9,1.04,1.24,1.64,2.48,1.98,3.33.95-1.49,3.47-5,8.17-6.96,3.44-1.43,6.4-1.35,7.9-1.29,1.46.06,10.13.39,14.24,6.57,2.01,3.02,2.61,6.95,2.7,7.59.16,1.13.2,2.08.2,2.75Z"/>
      <path class="cls-2" d="M278.11,126.59c-.68-2.57-.84-4.88-.81-6.72,0-8.32,0-16.64-.01-24.96.07-.86.11-2.05.01-3.45-.04-.57-.15-2.19-.51-3.46-.76-2.7-2.76-4.39-3.81-5.27-5.4-4.54-15.92-4.36-16.45-4.35-5.58.15-16.85.45-21.97,8.54-1.94,3.06-2.36,6.24-2.44,8.27h13.83c.03-.89.25-3.62,2.32-5.53.85-.78,1.73-1.17,2.21-1.38,1.81-.78,3.36-.73,5.07-.65,2.43.1,4.55.2,6.14,1.74.66.63,1.02,1.31,1.17,1.6.86,1.64.8,3.22.73,3.94-.02.34-.08.83-.31,1.34-.87,1.91-3.29,2.57-5.78,3.07-3.58.73-5.29.73-8.47,1.12-6.59.8-9.59,2.05-11.35,2.98-1.1.58-2.13,1.26-3.14,2.23-.29.28-1.72,1.68-2.78,3.88-2.76,5.72-.49,11.6-.33,11.99,1.13,2.78,2.82,4.48,3.29,4.94,3.89,3.77,8.85,4.08,12.13,4.29,0,0,5.02.32,10.73-1.7,2.52-.89,3.9-1.87,4.62-2.43.88-.7,1.52-1.38,1.94-1.87.07.83.2,1.77.43,2.79.16.72.36,1.39.56,1.99,4.65,0,9.31,0,13.96.01-.36-.88-.7-1.87-.99-2.95ZM263.56,112.26c-.03.47-.4,5.47-4.68,8.05-2.75,1.65-5.53,1.35-6.42,1.22-3.43.32-6.46-1.08-7.6-3.49-.57-1.2-.56-2.41-.44-3.27,0-.69.1-1.9.83-3.1.99-1.61,2.55-2.24,3.92-2.8,1.28-.52,2.4-.7,4.62-1.05,1.39-.22,1.24-.13,3.68-.48,2.53-.36,3.71-.6,4.96-1.36.56-.34.97-.68,1.22-.9-.03,2.4-.06,4.79-.08,7.18Z"/>
      <path class="cls-2" d="M330.84,94.3h-13.1c-.1-2.1-.89-3.34-1.33-3.9-1.96-2.54-5.39-2.66-8.06-2.76-2-.07-3.17.26-3.94.56-1.01.4-2.25.89-2.9,2.17-.89,1.74,0,3.64.15,3.94.27.32.7.79,1.32,1.26.94.72,2.03,1.23,4.96,2,1.27.33,1.9.5,2.83.67,6.35,1.18,15.55,2.89,19.29,8.04,3.07,4.21,2.58,10.76.35,15.17-6.1,12.07-25.88,9.18-26.81,9.03-3.53-.56-10.12-1.62-14.29-7.32-2.75-3.76-3.19-7.84-3.26-9.94,4.36,0,8.72-.01,13.08-.02-.02.87.08,2.04.62,3.25,1.77,3.98,6.97,5.53,10.89,5.15.41-.04,6.16-.67,7.49-4.29.49-1.34.19-2.59.14-2.78-.61-2.41-2.98-3.43-3.32-3.57-1.32-.42-3.38-1.04-5.92-1.71-6.02-1.58-7.86-1.63-11.92-3.1-4.22-1.53-5.95-2.76-7.24-4.32-1.42-1.71-2.07-3.5-2.39-4.71-.32-1.97-.79-6.57,1.78-10.85,3.69-6.15,10.97-7.17,15.02-7.74,1.13-.16,17.75-2.27,24.2,8.17,1.74,2.82,2.21,5.69,2.34,7.63Z"/>
      <path class="cls-2" d="M358.32,114.66c0,.53.02,2.64,1.5,3.75.52.39,1.02.51,1.81.69.88.2,1.67.24,4.63.04.83-.06,1.52-.11,1.99-.15v10.5c-3.36.36-6.22.46-8.37.46-5.44.01-7.29-.55-8.46-1-1.2-.47-3.1-1.23-4.66-3.13-.27-.33-1.3-1.62-1.87-3.6-.35-1.22-.31-1.95-.34-5.3,0-1.24-.02-2.65-.05-4.21v-23.68h-8.17v-9.21h8.17v-14.86h13.83v14.86h9.93v9.21h-9.93v25.62Z"/>
      <path class="cls-2" d="M411.52,81.98c-5.21-3.34-10.64-3.61-13.51-3.52-2.6.02-9.38.42-15.51,5.23-10.37,8.13-9.68,21.64-9.47,23.98,0,.02,0,.03,0,.05.15,2.42.95,9.52,6.25,15.31,7.06,7.7,16.74,7.71,19.32,7.71,3.03,0,10.26,0,16.31-5.41,4.59-4.11,6.09-9.2,6.6-11.38h-12.01c-.34.77-.89,1.79-1.8,2.77-3.96,4.22-12.67,5.47-17.58.76-3.57-3.43-3.45-8.41-3.4-9.5-.08,0-.16,0-.23,0,11.98,0,23.96.01,35.94.01,1.19-10.79-2.95-20.91-10.92-26.01ZM386.62,99.35c.01-.66.17-5.31,4.06-8.42,2.7-2.16,5.67-2.36,6.89-2.36.21,0,.42-.01.64,0,1.35.04,3.07.1,4.97,1.1,5.17,2.74,5.56,9.25,5.58,9.68-7.38,0-14.75,0-22.13,0Z"/>
      <path class="cls-2" d="M463.31,78.84v12.71c-1.09-.17-2.32-.29-3.66-.31-2.13-.04-4.01.18-5.55.46,0,0-2.06.61-3.94,2-4.39,3.24-5.18,8.7-5.29,11.48-.02.56-.02,1.01-.01,1.32,0,.12,0,.22.01.29v22.75h-13.68v-28.52h0v-21.28h13.08v9.2c.5-1.15,3.33-7.26,10.18-9.6,3.81-1.3,7.18-.85,8.86-.49Z"/>
      <path class="cls-2" d="M444.86,105.19v1.6c0-.06,0-.16-.01-.29,0-.3-.01-.76.01-1.32Z"/>
    </g>
  </g>
</svg>