<svg width="239" height="25" viewBox="0 0 239 25" fill="none" xmlns="http://www.w3.org/2000/svg">
    <path d="M12.6645 24.2241H6.96035C6.02636 24.2337 5.10077 24.0493 4.24376 23.6828C3.4174 23.3272 2.66963 22.8154 2.04273 22.1761C1.41369 21.549 0.907283 20.8127 0.548943 20.0043C0.180472 19.1577 -0.0063196 18.245 0.000338532 17.3237H3.7216C3.71418 17.7512 3.79748 18.1755 3.96616 18.5694C4.12475 18.9459 4.3484 19.2924 4.62713 19.5934C4.91821 19.8896 5.26362 20.1286 5.64502 20.2978C6.04314 20.4689 6.47324 20.5555 6.90747 20.5521H12.6116C13.0459 20.5555 13.476 20.4689 13.8741 20.2978C14.2773 20.128 14.6415 19.8795 14.9449 19.5673C15.2352 19.2674 15.4721 18.9212 15.6455 18.5433C15.8189 18.1505 15.9067 17.7261 15.9033 17.2976C15.9077 16.8767 15.8269 16.4592 15.6657 16.0694C15.5045 15.6797 15.2661 15.3257 14.9645 15.0281C14.6629 14.7304 14.3041 14.4952 13.9091 14.3361C13.5142 14.1771 13.0911 14.0974 12.6645 14.1017L6.96035 14.0691C6.02666 14.0757 5.1017 13.8914 4.24376 13.5278C3.42258 13.1834 2.67554 12.6876 2.04273 12.0668C1.41166 11.4339 0.905152 10.6908 0.548943 9.8754C0.177776 9.02279 -0.00907119 8.10315 0.000338532 7.17524C0.00213114 6.27792 0.188779 5.39033 0.548943 4.56639C0.903646 3.74244 1.41014 2.99055 2.04273 2.34886C2.67324 1.71879 3.42043 1.21398 4.24376 0.861819C5.1017 0.498229 6.02666 0.313912 6.96035 0.320482H11.8978C12.8227 0.316571 13.7385 0.500852 14.5879 0.861819C15.4216 1.21644 16.1814 1.72066 16.8286 2.34886C17.4677 2.98674 17.977 3.73947 18.329 4.56639C18.6941 5.38901 18.8832 6.27718 18.8842 7.17524H15.1564C15.1573 6.75426 15.0734 6.33731 14.9095 5.94862C14.7457 5.55992 14.5052 5.20725 14.202 4.91109C13.8987 4.61494 13.5389 4.38121 13.1433 4.2235C12.7478 4.0658 12.3244 3.98725 11.8978 3.99244H6.94052C6.51775 3.98708 6.09828 4.0664 5.70747 4.22558C5.31665 4.38477 4.96262 4.62052 4.66678 4.91858C4.36064 5.21052 4.11871 5.56156 3.9561 5.94981C3.79348 6.33807 3.71366 6.75521 3.7216 7.17524C3.71484 7.60694 3.79808 8.03539 3.96616 8.43401C4.12031 8.81084 4.34448 9.15591 4.62713 9.45146C4.92391 9.72751 5.26873 9.94845 5.64502 10.1037C6.04314 10.2748 6.47324 10.3614 6.90747 10.358H12.6116C13.5373 10.3528 14.4538 10.5394 15.3018 10.9059C16.1254 11.2588 16.876 11.7584 17.516 12.3799C18.1589 13.001 18.6711 13.7413 19.023 14.5583C19.385 15.4103 19.5714 16.3249 19.5714 17.2487C19.5714 18.1725 19.385 19.0871 19.023 19.9391C18.6907 20.7711 18.1968 21.5311 17.5689 22.1761C16.9332 22.8077 16.1818 23.3145 15.3547 23.6697C14.5061 24.0352 13.5903 24.2239 12.6645 24.2241Z" fill="black"/>
    <path d="M23.2863 0.254883H42.1041V3.99206H34.5889V24.1324H30.8015V3.99206H23.2863V0.254883Z" fill="black"/>
    <path d="M56.9363 0.255067C58.5521 0.2478 60.152 0.569755 61.6358 1.20078C64.5358 2.42607 66.8445 4.70881 68.0802 7.5729C68.7234 9.03594 69.0499 10.6154 69.0387 12.2101C69.0518 13.8135 68.7254 15.4018 68.0802 16.8735C67.4662 18.2895 66.5821 19.576 65.476 20.6628C64.3651 21.7455 63.0579 22.6128 61.6226 23.2195C60.1336 23.8367 58.5348 24.1547 56.9198 24.1547C55.3047 24.1547 53.7059 23.8367 52.217 23.2195C49.3214 22.0056 47.0159 19.7307 45.7857 16.8735C45.1459 15.4004 44.8218 13.8127 44.8339 12.2101C44.8237 10.6162 45.1478 9.03733 45.7857 7.5729C46.4006 6.15656 47.2795 4.86675 48.3767 3.7705C49.4781 2.67905 50.7819 1.80666 52.217 1.20078C53.7072 0.568014 55.314 0.246042 56.9363 0.255067ZM56.9363 20.6432C58.0715 20.6507 59.1962 20.4288 60.2411 19.991C62.2886 19.1373 63.9162 17.5267 64.7754 15.5038C65.2209 14.4618 65.4459 13.341 65.4364 12.2101C65.4438 11.09 65.2188 9.98022 64.7754 8.94907C63.9179 6.92059 62.2836 5.30803 60.2279 4.46184C59.1829 4.02428 58.0583 3.80233 56.9231 3.80963C55.7881 3.8047 54.6639 4.02656 53.6182 4.46184C51.5658 5.31278 49.9331 6.92377 49.0708 8.94907C48.6271 9.98017 48.4022 11.09 48.4098 12.2101C48.4003 13.341 48.6252 14.4618 49.0708 15.5038C49.9408 17.524 51.5709 19.1325 53.6182 19.991C54.668 20.428 55.7969 20.6499 56.9363 20.6432Z" fill="black"/>
    <path d="M88.1341 24.1324L81.8351 15.1188H77.8693V24.2498H74.0753V0.254883L85.2655 0.287493C86.2688 0.27927 87.2624 0.481578 88.1804 0.881007C89.0659 1.26219 89.8708 1.80425 90.5533 2.47893C91.2428 3.15865 91.7867 3.96821 92.1528 4.85951C92.5453 5.7802 92.7454 6.76957 92.7411 7.76838C92.7511 9.55169 92.0918 11.2756 90.8904 12.6078C90.3093 13.2566 89.6209 13.8035 88.8546 14.2253C88.0687 14.6507 87.2109 14.9314 86.3231 15.0536L92.6948 24.1324H88.1341ZM85.2655 11.4403C85.7611 11.4473 86.2524 11.3495 86.7064 11.1534C87.1432 10.9658 87.5385 10.6954 87.8698 10.3577C88.1994 10.0171 88.4656 9.6219 88.6563 9.1902C88.8545 8.74201 88.9536 8.25732 88.9471 7.76838C88.9507 6.77535 88.5563 5.8212 87.8499 5.11387C87.5099 4.7754 87.1115 4.49935 86.6734 4.2986C86.2239 4.09372 85.7342 3.98906 85.2391 3.99206H77.8627V11.4077L85.2655 11.4403Z" fill="black"/>
    <path d="M114.348 24.1327H98.6832V0.353027H114.348V4.02499H102.411V9.39922H112.808V13.0451H102.411V20.4868H114.348V24.1327Z" fill="black"/>
    <path d="M120.614 0.320312H136.775V4.05749H124.402V9.84262H120.614V0.320312ZM120.614 13.6776H124.402V24.2239H120.614V13.6776ZM128.414 13.6776V9.90784H135.499V13.645L128.414 13.6776Z" fill="#C40EEF"/>
    <path d="M159.863 7.7819C159.869 8.67366 159.705 9.55861 159.38 10.3908C158.743 12.0216 157.542 13.3777 155.989 14.2192C155.205 14.6493 154.347 14.9323 153.458 15.0541L159.83 24.1329H155.328L148.983 15.1519L145.017 15.1193V24.1916H141.23V5.36871H145.017V11.4082H152.381C152.874 11.4153 153.363 11.3174 153.815 11.1212C154.249 10.9376 154.644 10.6742 154.978 10.3451C155.316 10.0171 155.585 9.62718 155.771 9.19721C155.967 8.75055 156.066 8.2685 156.062 7.7819C156.063 7.28502 155.965 6.79285 155.771 6.33399C155.588 5.89479 155.319 5.49577 154.978 5.16001C154.637 4.82523 154.236 4.55548 153.795 4.36431C153.347 4.16273 152.86 4.0582 152.367 4.05777H146.861V0.320586H152.367C153.366 0.311815 154.356 0.514188 155.269 0.9141C156.155 1.29779 156.962 1.8395 157.648 2.51202C158.347 3.19151 158.906 3.9976 159.294 4.88608C159.684 5.80252 159.877 6.78833 159.863 7.7819Z" fill="#C40EEF"/>
    <path d="M177.61 0.000291055C179.265 -0.0111575 180.906 0.315255 182.428 0.959044C185.407 2.20194 187.778 4.54152 189.038 7.48117C189.689 8.9858 190.019 10.6064 190.009 12.2423C190.021 13.7441 189.74 15.2342 189.183 16.6317C188.652 17.9754 187.892 19.2195 186.936 20.3102C185.974 21.3925 184.829 22.3017 183.552 22.9973C182.241 23.7079 180.805 24.1682 179.321 24.3539V20.7081C181.294 20.3331 183.072 19.2876 184.345 17.7535C184.974 16.9889 185.476 16.1303 185.832 15.2099C186.202 14.2635 186.388 13.2568 186.381 12.2423C186.394 11.09 186.169 9.94711 185.72 8.88343C185.275 7.85785 184.636 6.92578 183.836 6.13762C183.039 5.34828 182.093 4.71922 181.053 4.28533C179.976 3.84205 178.82 3.61382 177.652 3.61382C176.485 3.61382 175.329 3.84205 174.252 4.28533C173.211 4.71759 172.265 5.34686 171.469 6.13762C170.669 6.92578 170.03 7.85785 169.585 8.88343C169.136 9.94711 168.911 11.09 168.924 12.2423C168.922 13.2467 169.103 14.2432 169.46 15.1838C169.807 16.0967 170.3 16.9489 170.921 17.7079C172.166 19.2149 173.893 20.261 175.818 20.6754V24.3213C174.352 24.1133 172.936 23.6425 171.641 22.9321C169.082 21.5426 167.107 19.3001 166.069 16.6056C165.52 15.215 165.239 13.7349 165.243 12.2423C165.233 10.6064 165.563 8.9858 166.214 7.48117C167.469 4.53797 169.841 2.19667 172.824 0.959044C174.336 0.318755 175.965 -0.00760407 177.61 0.000291055Z" fill="#C40EEF"/>
    <path d="M209.971 16.5863V22.6258L198.794 8.72713V24.1324H194.986V0.254883H196.831L209.971 16.5863ZM213.857 16.3645H210.063V0.254883H213.857V16.3645Z" fill="#C40EEF"/>
    <path d="M230.957 8.59669H230.99V24.1324H227.196V3.99206H219.68V0.254883H230.957V8.59669ZM234.354 0.254883H238.498V3.99206H234.354V0.254883Z" fill="#C40EEF"/>
</svg>