<svg width="22" height="22" viewBox="0 0 22 22" fill="none" xmlns="http://www.w3.org/2000/svg">
  <path d="M1 1H3.16324L3.59589 3.16324M5.32649 11.8162H16.1427L20.4692 3.16324H3.59589M5.32649 11.8162L3.59589 3.16324M5.32649 11.8162L2.84633 14.2964C2.16491 14.9778 2.64731 16.1427 3.61104 16.1427H16.1427M16.1427 16.1427C15.569 16.1427 15.0188 16.3706 14.6131 16.7763C14.2074 17.182 13.9795 17.7322 13.9795 18.306C13.9795 18.8797 14.2074 19.4299 14.6131 19.8356C15.0188 20.2413 15.569 20.4692 16.1427 20.4692C16.7164 20.4692 17.2667 20.2413 17.6724 19.8356C18.078 19.4299 18.306 18.8797 18.306 18.306C18.306 17.7322 18.078 17.182 17.6724 16.7763C17.2667 16.3706 16.7164 16.1427 16.1427 16.1427ZM7.48973 18.306C7.48973 18.8797 7.26182 19.4299 6.85613 19.8356C6.45045 20.2413 5.90022 20.4692 5.32649 20.4692C4.75276 20.4692 4.20253 20.2413 3.79684 19.8356C3.39116 19.4299 3.16324 18.8797 3.16324 18.306C3.16324 17.7322 3.39116 17.182 3.79684 16.7763C4.20253 16.3706 4.75276 16.1427 5.32649 16.1427C5.90022 16.1427 6.45045 16.3706 6.85613 16.7763C7.26182 17.182 7.48973 17.7322 7.48973 18.306V18.306Z" stroke="black" stroke-width="2" stroke-linecap="round" stroke-linejoin="round"/>
</svg>