<svg width="22" height="19" viewBox="0 0 22 19" fill="none" xmlns="http://www.w3.org/2000/svg">
  <path d="M2.80061 2.42561C2.34864 2.87758 1.99011 3.41415 1.74551 4.00468C1.5009 4.59521 1.375 5.22814 1.375 5.86732C1.375 6.50651 1.5009 7.13944 1.74551 7.72996C1.99011 8.32049 2.34864 8.85706 2.80061 9.30903L11.1096 17.618L19.4186 9.30903C20.3314 8.39623 20.8442 7.15821 20.8442 5.86732C20.8442 4.57643 20.3314 3.33841 19.4186 2.42561C18.5058 1.51282 17.2678 1.00001 15.9769 1.00001C14.686 1.00001 13.448 1.51282 12.5352 2.42561L11.1096 3.85119L9.68403 2.42561C9.23206 1.97364 8.6955 1.61511 8.10497 1.37051C7.51444 1.1259 6.88151 1 6.24232 1C5.60314 1 4.97021 1.1259 4.37968 1.37051C3.78915 1.61511 3.25258 1.97364 2.80061 2.42561V2.42561Z" stroke="black" stroke-width="2" stroke-linecap="round" stroke-linejoin="round"/>
</svg>